<svg width="13" height="10" viewBox="0 0 13 10" fill="none" xmlns="http://www.w3.org/2000/svg">
<path d="M3.96718 10C3.90717 10 3.85216 9.977 3.80882 9.93593L0.0650083 6.21981C0.0233363 6.17874 0 6.12453 0 6.06538C0 6.00624 0.0233363 5.95203 0.0650083 5.91096L0.960123 5.02875C1.0018 4.98768 1.0568 4.96632 1.11681 4.96632C1.17682 4.96632 1.23182 4.98932 1.2735 5.03039L3.97051 7.70823L11.7248 0.064071C11.7665 0.0229998 11.8232 0 11.8815 0C11.9415 0 11.9965 0.0229998 12.0399 0.064071L12.935 0.946279C12.9767 0.98735 13 1.04156 13 1.10071C13 1.15985 12.9767 1.21406 12.935 1.25678L4.12386 9.93757C4.08219 9.97864 4.02718 10 3.96718 10Z" fill="#7B2CBF"/>
</svg>
