<svg width="91" height="30" viewBox="0 0 91 30" fill="none" xmlns="http://www.w3.org/2000/svg">
<path d="M18.9554 26.6474C16.5772 28.9873 14.0592 29.8953 10.9816 29.8953C5.00115 29.8953 0 26.2981 0 18.964C0 11.6299 5.00115 8.03271 10.9816 8.03271C13.9193 8.03271 16.1925 8.8709 18.4308 11.1061L15.2133 14.4937C14.0242 13.4111 12.4854 12.8523 11.0865 12.8523C7.65911 12.8523 5.14105 15.3668 5.14105 18.964C5.14105 22.9105 7.83397 25.0059 11.0165 25.0059C12.6603 25.0059 14.304 24.5519 15.5281 23.2946L18.9554 26.6474Z" fill="#1F0B30"/>
<path d="M25.4603 0V29.2666H20.3892V0H25.4603Z" fill="#1F0B30"/>
<path d="M45.535 8.62626H50.4312V29.2665H45.605L45.3601 26.263C44.1711 28.7077 40.9535 29.8602 38.6453 29.8952C32.525 29.965 27.9785 26.1932 27.9785 18.9289C27.9785 11.8044 32.7349 8.06747 38.7502 8.13731C41.5131 8.13731 44.1711 9.42951 45.3252 11.49L45.535 8.62626ZM33.1196 18.9289C33.1196 22.8754 35.8475 25.2153 39.2399 25.2153C47.2837 25.2153 47.2837 12.6775 39.2399 12.6775C35.8475 12.6775 33.1196 14.9825 33.1196 18.9289Z" fill="#1F0B30"/>
<path d="M67.4281 14.1095C65.9592 12.7126 64.2805 12.2586 62.322 12.2586C59.8739 12.2586 58.5449 13.0269 58.5449 14.3191C58.5449 15.6462 59.769 16.4146 62.392 16.5892C66.3089 16.8336 71.2402 17.7068 71.2402 23.1899C71.2402 26.822 68.2674 29.9652 62.357 29.9652C59.0695 29.9652 55.817 29.4064 52.8093 26.2632L55.3274 22.6311C56.7963 24.2725 60.1537 25.4949 62.4619 25.5298C64.3854 25.5647 66.204 24.5519 66.204 23.0502C66.204 21.6183 65.0149 21.0246 62.0772 20.8849C58.1602 20.6055 53.5088 19.1736 53.5088 14.4937C53.5088 9.70908 58.475 8.03271 62.2171 8.03271C65.4346 8.03271 67.8827 8.66135 70.2609 10.7568L67.4281 14.1095Z" fill="#1F0B30"/>
<path d="M87.188 14.1095C85.7191 12.7126 84.0404 12.2586 82.0819 12.2586C79.6338 12.2586 78.3048 13.0269 78.3048 14.3191C78.3048 15.6462 79.5289 16.4146 82.1518 16.5892C86.0688 16.8336 91 17.7068 91 23.1899C91 26.822 88.0273 29.9652 82.1169 29.9652C78.8294 29.9652 75.5769 29.4064 72.5692 26.2632L75.0873 22.6311C76.5561 24.2725 79.9136 25.4949 82.2218 25.5298C84.1453 25.5647 85.9639 24.5519 85.9639 23.0502C85.9639 21.6183 84.7748 21.0246 81.8371 20.8849C77.9201 20.6055 73.2687 19.1736 73.2687 14.4937C73.2687 9.70908 78.2349 8.03271 81.977 8.03271C85.1945 8.03271 87.6426 8.66135 90.0208 10.7568L87.188 14.1095Z" fill="#1F0B30"/>
</svg>
