<svg width="16" height="16" viewBox="0 0 16 16" fill="none" xmlns="http://www.w3.org/2000/svg">
<g clip-path="url(#clip0)">
<path d="M13.9491 0H2.05592C0.924914 0 0 0.834433 0 2.05592V13.9491C0 15.1656 0.924914 16 2.05592 16H13.9491C15.0801 16 16.005 15.1656 16.005 13.9491V2.05592C16 0.834433 15.0751 0 13.9491 0ZM10.9381 2.49827C10.9381 2.10116 11.2598 1.77945 11.6569 1.77945H13.4665C13.8637 1.77945 14.1854 2.10116 14.1854 2.49827V4.22243C14.1854 4.61954 13.8637 4.94125 13.4665 4.94125H11.6569C11.2598 4.94125 10.9381 4.61954 10.9381 4.22243V2.49827ZM8.01759 4.85077C9.79202 4.85077 11.2297 6.24317 11.2297 7.96733C11.2297 9.69149 9.79202 11.0839 8.01759 11.0839C6.24317 11.0839 4.80553 9.69149 4.80553 7.96733C4.80553 6.24317 6.24317 4.85077 8.01759 4.85077ZM14.1954 13.5269C14.1954 13.8787 13.9089 14.1653 13.557 14.1653H2.41282C2.06095 14.1653 1.77443 13.8787 1.77443 13.5269V6.76594H3.24222C3.11153 7.20327 3.03613 7.6607 3.03613 8.13824C3.03613 10.8024 5.26296 12.9588 8.01257 12.9588C10.7622 12.9588 12.989 10.8024 12.989 8.13824C12.989 7.6607 12.9186 7.19824 12.7829 6.76594H14.1904V13.5269H14.1954Z" fill="#1F0B30"/>
</g>
<defs>
<clipPath id="clip0">
<rect width="16" height="16" fill="white"/>
</clipPath>
</defs>
</svg>
