<svg width="17" height="16" viewBox="0 0 17 16" fill="none" xmlns="http://www.w3.org/2000/svg">
<g clip-path="url(#clip0)">
<path d="M3.80571 5.31982H0.27832V16.005H3.80571V5.31982Z" fill="#1F0B30"/>
<path d="M2.03936 0C0.915302 0 0 0.861461 0 1.9194C0 2.98237 0.915302 3.85894 2.03936 3.85894C3.16877 3.85894 4.07872 2.98237 4.07872 1.9194C4.08407 0.861461 3.16877 0 2.03936 0Z" fill="#1F0B30"/>
<path d="M12.7821 5.04785C11.0693 5.04785 9.91844 5.9345 9.4474 6.77077H9.39923V5.31485H6.01636V16H9.5384V10.7103C9.5384 9.31989 9.81674 7.96977 11.6527 7.96977C13.4565 7.96977 13.4833 9.55667 13.4833 10.796V16H17H17.0053V10.131C17 7.25944 16.347 5.04785 12.7821 5.04785Z" fill="#1F0B30"/>
</g>
<defs>
<clipPath id="clip0">
<rect width="17" height="16" fill="white"/>
</clipPath>
</defs>
</svg>
