<svg width="12" height="10" viewBox="0 0 12 10" fill="none" xmlns="http://www.w3.org/2000/svg">
<g clip-path="url(#clip0)">
<path d="M11.8153 4.52391L7.79593 0.19976C7.55017 -0.0646334 7.15318 -0.0646334 6.90742 0.19976C6.66166 0.464153 6.66166 0.891249 6.90742 1.15564L9.85507 4.32679H0.628211C0.280659 4.32523 0 4.62717 0 5.00107C0 5.37498 0.280659 5.67692 0.628211 5.67692H9.85507L6.90887 8.84807C6.66311 9.11246 6.66311 9.53956 6.90887 9.80395C7.03102 9.93537 7.19244 10.0011 7.3524 10.0011C7.51382 10.0011 7.67378 9.93537 7.79593 9.80395L11.8153 5.4798C12.0611 5.2154 12.0611 4.78674 11.8153 4.52391Z" fill="#A59DAC"/>
</g>
<defs>
<clipPath id="clip0">
<rect width="12" height="10" fill="white"/>
</clipPath>
</defs>
</svg>
