<svg width="26" height="26" viewBox="0 0 26 26" fill="none" xmlns="http://www.w3.org/2000/svg">
<g clip-path="url(#clip0)">
<path d="M21.0095 17.8849C24.5442 12.6214 23.145 5.49093 17.8815 1.95213C12.6181 -1.58667 5.48758 -0.18335 1.95284 5.0801C-1.58189 10.3436 -0.182637 17.474 5.08082 21.0128C8.95316 23.612 14.0132 23.612 17.8856 21.0128L22.2257 25.3529C23.088 26.2153 24.4913 26.2153 25.3537 25.3529C26.216 24.4906 26.216 23.0873 25.3537 22.225L21.0095 17.8849ZM11.4913 20.3091C6.62243 20.3091 2.67281 16.3636 2.67281 11.4906C2.67281 6.62172 6.61836 2.67209 11.4913 2.67209C16.3602 2.67209 20.3099 6.61765 20.3099 11.4906C20.3017 16.3595 16.3602 20.301 11.4913 20.3091Z" fill="white"/>
</g>
<defs>
<clipPath id="clip0">
<rect width="26" height="26" fill="white"/>
</clipPath>
</defs>
</svg>
