<svg width="16" height="14" viewBox="0 0 16 14" fill="none" xmlns="http://www.w3.org/2000/svg">
<g clip-path="url(#clip0)">
<path d="M14.3663 3.49053L14.3764 3.94511C14.3764 8.61539 11.0738 14.0054 5.03173 14.0054C3.17688 14.0054 1.45272 13.421 0 12.409C0.251335 12.4468 0.512724 12.4631 0.779139 12.4631C2.31731 12.4631 3.73484 11.8949 4.8558 10.9478C3.41816 10.9208 2.21175 9.89795 1.78951 8.49633C1.99058 8.53962 2.19667 8.56127 2.40779 8.56127C2.70939 8.56127 3.00094 8.51797 3.27238 8.4368C1.77443 8.1121 0.643418 6.68342 0.643418 4.97333V4.92462C1.08074 5.1898 1.58844 5.34673 2.1263 5.36297C1.24662 4.73521 0.668552 3.64206 0.668552 2.42443C0.668552 1.77503 0.829406 1.16351 1.11593 0.643989C2.72447 2.7816 5.15237 4.18322 7.87685 4.33475C7.81653 4.0804 7.79642 3.80982 7.79642 3.52841C7.79642 1.58562 9.25919 0 11.0738 0C12.0189 0 12.8734 0.432934 13.4716 1.1148C14.2155 0.957866 14.9193 0.671048 15.5577 0.265172C15.3164 1.09316 14.7936 1.78044 14.11 2.21879C14.7785 2.1322 15.4119 1.93738 16 1.65597C15.5627 2.3649 14.9997 2.98724 14.3663 3.49053Z" fill="#1F0B30"/>
</g>
<defs>
<clipPath id="clip0">
<rect width="16" height="14" fill="white"/>
</clipPath>
</defs>
</svg>
