<svg width="16" height="14" viewBox="0 0 16 14" fill="none" xmlns="http://www.w3.org/2000/svg">
<g clip-path="url(#clip0)">
<path d="M15.9196 3.38458C15.0198 8.3717 10.0132 12.6628 8.51021 13.6593C7.00723 14.6507 5.60478 13.2587 5.10211 12.2623C4.60446 10.9654 2.90544 4.68143 2.40779 4.08558C2.00566 3.58486 0.603205 4.68143 0.603205 4.68143L0 3.78515C0 3.78515 2.70437 0.495449 4.80553 0.0948772C7.01225 -0.305695 7.01225 3.48973 7.5099 5.58272C8.00754 7.57556 8.40968 8.77227 8.81181 8.77227C9.21395 8.77227 10.1137 7.67571 11.0185 5.87814C11.9183 4.18572 11.0185 2.58343 9.11844 3.68501C9.91769 -0.606124 16.8244 -1.70269 15.9196 3.38458Z" fill="#1F0B30"/>
</g>
<defs>
<clipPath id="clip0">
<rect width="16" height="14" fill="white"/>
</clipPath>
</defs>
</svg>
